# xmcd CD database file
#
# Track frame offsets:
#	150
#	11362
#	23045
#	33652
#	44622
#	55900
#	66125
#	77162
#	87347
#	98207
#
# Disc length: 1447 seconds
#
# Revision: 2
# Processed by: cddbd v1.5PL3 Copyright (c) Steve Scherf et al.
# Submitted via: CDex 1.50
#
DISCID=7a05a50a
DTITLE=Patsy Cline - Golden Hits
DYEAR=1900
DGENRE=Country
TTITLE0=Just Out of Reach
TTITLE1=Walkin' After Midnight
TTITLE2=Honky Tonk Merry Go Round
TTITLE3=Stop the World (And Let Me Off)
TTITLE4=I've Loved and Lost Again
TTITLE5=Pick Me Up
TTITLE6=The Heart You Break May Be Your Own
TTITLE7=Too Many Secrets
TTITLE8=I Cried All the Way to the Altar
TTITLE9=Stop, Look and Listen
EXTD=
EXTT0=
EXTT1=
EXTT2=
EXTT3=
EXTT4=
EXTT5=
EXTT6=
EXTT7=
EXTT8=
EXTT9=
PLAYORDER=
